# xmcd
#
# Track frame offsets: 
#        150
#        12397
#        25877
#        39005
#        52525
#        65775
#        78535
#        93737
#        107537
#        122282
#        136682
#        150382
#        164100
#        177970
#        192740
#        208132
#        220762
#        234372
#        248970
#
# Disc length: 3509 seconds
#
# Revision: 4
# Processed by: cddbd v1.4PL0 Copyright (c) Steve Scherf et al.
# Submitted via: ExactAudioCopy v0.95a3
#
DISCID=fb0db313
DTITLE=Lonnie Johnson - Steppin' On The Blues
DYEAR=1990
DGENRE=Blues
TTITLE0=Mr. Johnson's Blues
TTITLE1=Sweet Potato Blues
TTITLE2=Steppin' On The Blues
TTITLE3=I Done Told You
TTITLE4=Mean Old Bedbug Blues
TTITLE5=Toothache Blues - Part I
TTITLE6=Toothache Blues - Part II
TTITLE7=Have To Change Keys (To Play These Blues)
TTITLE8=Guitar Blues
TTITLE9=She's Making Whoopee In Hell Tonight
TTITLE10=Playing With The Strings
TTITLE11=No More Women Blues
TTITLE12=Deep Blue Sea Blues
TTITLE13=No More Troubles Now
TTITLE14=Got The Blues For Murder Only
TTITLE15=[untitled]
TTITLE16=6/88 Glide
TTITLE17=Racketeer's Blues
TTITLE18=I'm Nuts About That Gal
EXTD=Columbia, CK 46221
EXTT0=
EXTT1=
EXTT2=
EXTT3=
EXTT4=
EXTT5=
EXTT6=
EXTT7=
EXTT8=
EXTT9=
EXTT10=
EXTT11=
EXTT12=
EXTT13=
EXTT14=
EXTT15=
EXTT16=
EXTT17=
EXTT18=
PLAYORDER=
